# xmcd CD database file
#
# Track frame offsets:
#	150
#	17987
#	42737
#	69132
#	97465
#	123052
#	144647
#	166075
#	184407
#	203635
#	221770
#
# Disc length: 3033 seconds
#
# Revision: 2
# Processed by: cddbd v1.5.2PL0 Copyright (c) Steve Scherf et al.
# Submitted via: CDex 2.09
#
DISCID=a50bd70b
DTITLE=Seal - Seal
DYEAR=1994
DGENRE=R&B
TTITLE0=Bring It On
TTITLE1=Prayer for the Dying
TTITLE2=Dreaming in Metaphors
TTITLE3=Don't Cry
TTITLE4=Fast Changes
TTITLE5=Kiss from a Rose
TTITLE6=People Asking Why
TTITLE7=Newborn Friend
TTITLE8=If I Could
TTITLE9=I'm Alive
TTITLE10=Bring It On (reprise)
EXTD=YEAR: 1994
EXTT0=
EXTT1=
EXTT2=
EXTT3=
EXTT4=
EXTT5=
EXTT6=
EXTT7=
EXTT8=
EXTT9=
EXTT10=
PLAYORDER=
